<svg id="visual" viewBox="0 0 960 540" width="960" height="540" xmlns="http://www.w3.org/2000/svg" xmlns:xlink="http://www.w3.org/1999/xlink" version="1.1"><rect x="0" y="0" width="960" height="540" fill="#00274c"></rect><defs><linearGradient id="grad1_0" x1="43.8%" y1="0%" x2="100%" y2="100%"><stop offset="14.444444444444446%" stop-color="#00274c" stop-opacity="1"></stop><stop offset="85.55555555555554%" stop-color="#00274c" stop-opacity="1"></stop></linearGradient></defs><defs><linearGradient id="grad2_0" x1="0%" y1="0%" x2="56.3%" y2="100%"><stop offset="14.444444444444446%" stop-color="#00274c" stop-opacity="1"></stop><stop offset="85.55555555555554%" stop-color="#00274c" stop-opacity="1"></stop></linearGradient></defs><g transform="translate(960, 0)"><path d="M0 405C-35 353.6 -70 302.2 -119 287.3C-168 272.5 -231 294.1 -277.9 277.9C-324.8 261.7 -355.7 207.6 -374.2 155C-392.7 102.4 -398.8 51.2 -405 0L0 0Z" fill="#Ffcb05"></path></g><g transform="translate(0, 540)"><path d="M0 -405C53.5 -390 107 -375.1 142.7 -344.6C178.5 -314.1 196.6 -268.1 237.6 -237.6C278.6 -207.1 342.5 -192 374.2 -155C405.9 -118 405.4 -59 405 0L0 0Z" fill="#Ffcb05"></path></g></svg>