<svg id="visual" viewBox="0 0 960 540" width="960" height="540" xmlns="http://www.w3.org/2000/svg" xmlns:xlink="http://www.w3.org/1999/xlink" version="1.1"><g stroke-width="1" stroke-linejoin="bevel"><path d="M480 270L480 180L384 180Z" fill="#035217" stroke="#035217"></path><path d="M384 180L384 270L480 270Z" fill="#002f00" stroke="#002f00"></path><path d="M480 180L384 90L384 180Z" fill="#055e21" stroke="#055e21"></path><path d="M384 270L480 360L480 270Z" fill="#002f00" stroke="#002f00"></path><path d="M384 270L384 360L480 360Z" fill="#098343" stroke="#098343"></path><path d="M480 180L480 90L384 90Z" fill="#00460c" stroke="#00460c"></path><path d="M480 360L576 270L480 270Z" fill="#035217" stroke="#035217"></path><path d="M480 270L576 270L480 180Z" fill="#003a00" stroke="#003a00"></path><path d="M480 180L576 180L480 90Z" fill="#097637" stroke="#097637"></path><path d="M288 180L288 270L384 180Z" fill="#086a2c" stroke="#086a2c"></path><path d="M384 180L288 270L384 270Z" fill="#000000" stroke="#000000"></path><path d="M384 270L288 270L384 360Z" fill="#00460c" stroke="#00460c"></path><path d="M576 270L576 180L480 180Z" fill="#000000" stroke="#000000"></path><path d="M384 90L288 180L384 180Z" fill="#000000" stroke="#000000"></path><path d="M480 360L576 360L576 270Z" fill="#00460c" stroke="#00460c"></path><path d="M384 90L288 90L288 180Z" fill="#003a00" stroke="#003a00"></path><path d="M576 180L576 90L480 90Z" fill="#002f00" stroke="#002f00"></path><path d="M288 270L288 360L384 360Z" fill="#002f00" stroke="#002f00"></path><path d="M384 360L480 450L480 360Z" fill="#002500" stroke="#002500"></path><path d="M480 360L480 450L576 360Z" fill="#002500" stroke="#002500"></path><path d="M384 450L480 450L384 360Z" fill="#003a00" stroke="#003a00"></path><path d="M576 90L480 0L480 90Z" fill="#002f00" stroke="#002f00"></path><path d="M480 90L480 0L384 90Z" fill="#097637" stroke="#097637"></path><path d="M384 90L384 0L288 90Z" fill="#035217" stroke="#035217"></path><path d="M480 0L384 0L384 90Z" fill="#00460c" stroke="#00460c"></path><path d="M288 360L384 450L384 360Z" fill="#00460c" stroke="#00460c"></path><path d="M672 270L672 180L576 270Z" fill="#035217" stroke="#035217"></path><path d="M576 270L672 180L576 180Z" fill="#000000" stroke="#000000"></path><path d="M576 180L672 180L576 90Z" fill="#001d00" stroke="#001d00"></path><path d="M576 360L672 270L576 270Z" fill="#001d00" stroke="#001d00"></path><path d="M288 180L192 270L288 270Z" fill="#000000" stroke="#000000"></path><path d="M288 270L192 270L288 360Z" fill="#000000" stroke="#000000"></path><path d="M192 180L192 270L288 180Z" fill="#035217" stroke="#035217"></path><path d="M288 90L192 180L288 180Z" fill="#035217" stroke="#035217"></path><path d="M480 450L576 450L576 360Z" fill="#000000" stroke="#000000"></path><path d="M576 360L672 360L672 270Z" fill="#00460c" stroke="#00460c"></path><path d="M672 90L576 0L576 90Z" fill="#002500" stroke="#002500"></path><path d="M576 90L576 0L480 0Z" fill="#001d00" stroke="#001d00"></path><path d="M192 360L288 450L288 360Z" fill="#035217" stroke="#035217"></path><path d="M288 360L288 450L384 450Z" fill="#055e21" stroke="#055e21"></path><path d="M384 0L288 0L288 90Z" fill="#086a2c" stroke="#086a2c"></path><path d="M288 90L192 90L192 180Z" fill="#000000" stroke="#000000"></path><path d="M576 450L672 360L576 360Z" fill="#035217" stroke="#035217"></path><path d="M672 180L672 90L576 90Z" fill="#002500" stroke="#002500"></path><path d="M288 0L192 90L288 90Z" fill="#00460c" stroke="#00460c"></path><path d="M192 270L192 360L288 360Z" fill="#00460c" stroke="#00460c"></path><path d="M288 450L384 540L384 450Z" fill="#003a00" stroke="#003a00"></path><path d="M384 450L384 540L480 450Z" fill="#086a2c" stroke="#086a2c"></path><path d="M480 450L480 540L576 450Z" fill="#002f00" stroke="#002f00"></path><path d="M384 540L480 540L480 450Z" fill="#098343" stroke="#098343"></path><path d="M288 0L192 0L192 90Z" fill="#086a2c" stroke="#086a2c"></path><path d="M288 450L288 540L384 540Z" fill="#035217" stroke="#035217"></path><path d="M192 360L192 450L288 450Z" fill="#00460c" stroke="#00460c"></path><path d="M672 90L672 0L576 0Z" fill="#00460c" stroke="#00460c"></path><path d="M576 540L672 450L576 450Z" fill="#097637" stroke="#097637"></path><path d="M576 450L672 450L672 360Z" fill="#097637" stroke="#097637"></path><path d="M192 270L96 270L192 360Z" fill="#097637" stroke="#097637"></path><path d="M192 360L96 360L192 450Z" fill="#00460c" stroke="#00460c"></path><path d="M192 180L96 270L192 270Z" fill="#00460c" stroke="#00460c"></path><path d="M96 180L96 270L192 180Z" fill="#035217" stroke="#035217"></path><path d="M96 180L192 180L192 90Z" fill="#003a00" stroke="#003a00"></path><path d="M672 270L768 180L672 180Z" fill="#097637" stroke="#097637"></path><path d="M672 180L768 180L672 90Z" fill="#098343" stroke="#098343"></path><path d="M672 90L768 90L672 0Z" fill="#035217" stroke="#035217"></path><path d="M768 270L768 180L672 270Z" fill="#086a2c" stroke="#086a2c"></path><path d="M768 270L672 270L672 360Z" fill="#055e21" stroke="#055e21"></path><path d="M768 360L768 270L672 360Z" fill="#086a2c" stroke="#086a2c"></path><path d="M96 90L96 180L192 90Z" fill="#00460c" stroke="#00460c"></path><path d="M192 450L288 540L288 450Z" fill="#002500" stroke="#002500"></path><path d="M480 540L576 540L576 450Z" fill="#003a00" stroke="#003a00"></path><path d="M672 450L768 360L672 360Z" fill="#002500" stroke="#002500"></path><path d="M96 270L96 360L192 360Z" fill="#00460c" stroke="#00460c"></path><path d="M768 180L768 90L672 90Z" fill="#035217" stroke="#035217"></path><path d="M192 0L96 90L192 90Z" fill="#098343" stroke="#098343"></path><path d="M96 450L192 540L192 450Z" fill="#001d00" stroke="#001d00"></path><path d="M192 450L192 540L288 540Z" fill="#002500" stroke="#002500"></path><path d="M576 540L672 540L672 450Z" fill="#086a2c" stroke="#086a2c"></path><path d="M672 450L768 450L768 360Z" fill="#00460c" stroke="#00460c"></path><path d="M96 360L96 450L192 450Z" fill="#001d00" stroke="#001d00"></path><path d="M672 540L768 450L672 450Z" fill="#003a00" stroke="#003a00"></path><path d="M192 0L96 0L96 90Z" fill="#097637" stroke="#097637"></path><path d="M768 90L768 0L672 0Z" fill="#00460c" stroke="#00460c"></path><path d="M768 270L864 270L768 180Z" fill="#001d00" stroke="#001d00"></path><path d="M768 180L864 180L768 90Z" fill="#002f00" stroke="#002f00"></path><path d="M768 90L864 90L768 0Z" fill="#003a00" stroke="#003a00"></path><path d="M768 360L864 270L768 270Z" fill="#086a2c" stroke="#086a2c"></path><path d="M864 360L864 270L768 360Z" fill="#097637" stroke="#097637"></path><path d="M96 270L0 270L96 360Z" fill="#000000" stroke="#000000"></path><path d="M96 360L0 360L96 450Z" fill="#002500" stroke="#002500"></path><path d="M96 180L0 270L96 270Z" fill="#035217" stroke="#035217"></path><path d="M0 180L0 270L96 180Z" fill="#003a00" stroke="#003a00"></path><path d="M0 180L96 180L96 90Z" fill="#001d00" stroke="#001d00"></path><path d="M0 90L0 180L96 90Z" fill="#000000" stroke="#000000"></path><path d="M864 270L864 180L768 180Z" fill="#000000" stroke="#000000"></path><path d="M0 270L0 360L96 360Z" fill="#086a2c" stroke="#086a2c"></path><path d="M768 450L864 360L768 360Z" fill="#001d00" stroke="#001d00"></path><path d="M864 180L864 90L768 90Z" fill="#001d00" stroke="#001d00"></path><path d="M96 0L0 90L96 90Z" fill="#002500" stroke="#002500"></path><path d="M96 450L96 540L192 540Z" fill="#097637" stroke="#097637"></path><path d="M0 450L96 540L96 450Z" fill="#097637" stroke="#097637"></path><path d="M672 540L768 540L768 450Z" fill="#002f00" stroke="#002f00"></path><path d="M768 450L864 450L864 360Z" fill="#000000" stroke="#000000"></path><path d="M96 0L0 0L0 90Z" fill="#097637" stroke="#097637"></path><path d="M768 540L864 450L768 450Z" fill="#002f00" stroke="#002f00"></path><path d="M0 360L0 450L96 450Z" fill="#002f00" stroke="#002f00"></path><path d="M864 90L864 0L768 0Z" fill="#097637" stroke="#097637"></path><path d="M864 270L960 270L864 180Z" fill="#002500" stroke="#002500"></path><path d="M864 180L960 180L864 90Z" fill="#055e21" stroke="#055e21"></path><path d="M864 90L960 90L864 0Z" fill="#000000" stroke="#000000"></path><path d="M864 360L960 270L864 270Z" fill="#00460c" stroke="#00460c"></path><path d="M960 360L960 270L864 360Z" fill="#035217" stroke="#035217"></path><path d="M960 270L960 180L864 180Z" fill="#002f00" stroke="#002f00"></path><path d="M0 450L0 540L96 540Z" fill="#001d00" stroke="#001d00"></path><path d="M768 540L864 540L864 450Z" fill="#000000" stroke="#000000"></path><path d="M864 450L960 360L864 360Z" fill="#002500" stroke="#002500"></path><path d="M960 450L960 360L864 450Z" fill="#055e21" stroke="#055e21"></path><path d="M960 180L960 90L864 90Z" fill="#055e21" stroke="#055e21"></path><path d="M864 540L960 450L864 450Z" fill="#086a2c" stroke="#086a2c"></path><path d="M960 90L960 0L864 0Z" fill="#097637" stroke="#097637"></path><path d="M864 540L960 540L960 450Z" fill="#098343" stroke="#098343"></path></g></svg>