<svg id="visual" style="filter: brightness(2)" viewBox="0 0 960 540" width="960" height="540" xmlns="http://www.w3.org/2000/svg" xmlns:xlink="http://www.w3.org/1999/xlink" version="1.1"><path d="M0 104L137 77L274 55L411 44L549 93L686 50L823 82L960 114L960 0L823 0L686 0L549 0L411 0L274 0L137 0L0 0Z" fill="#056341"></path><path d="M0 233L137 222L274 163L411 185L549 222L686 217L823 212L960 217L960 112L823 80L686 48L549 91L411 42L274 53L137 75L0 102Z" fill="#024324"></path><path d="M0 260L137 282L274 228L411 212L549 282L686 276L823 271L960 255L960 215L823 210L686 215L549 220L411 183L274 161L137 220L0 231Z" fill="#002504"></path><path d="M0 298L137 325L274 255L411 255L549 303L686 309L823 314L960 282L960 253L823 269L686 274L549 280L411 210L274 226L137 280L0 258Z" fill="#000000"></path><path d="M0 320L137 374L274 276L411 298L549 325L686 336L823 363L960 303L960 280L823 312L686 307L549 301L411 253L274 253L137 323L0 296Z" fill="#000000"></path><path d="M0 433L137 460L274 455L411 428L549 449L686 411L823 422L960 433L960 301L823 361L686 334L549 323L411 296L274 274L137 372L0 318Z" fill="#002504"></path><path d="M0 492L137 498L274 487L411 482L549 487L686 471L823 471L960 492L960 431L823 420L686 409L549 447L411 426L274 453L137 458L0 431Z" fill="#024324"></path><path d="M0 541L137 541L274 541L411 541L549 541L686 541L823 541L960 541L960 490L823 469L686 469L549 485L411 480L274 485L137 496L0 490Z" fill="#056341"></path></svg>