<svg id="visual" viewBox="0 0 960 540" width="960" height="540" xmlns="http://www.w3.org/2000/svg" xmlns:xlink="http://www.w3.org/1999/xlink" version="1.1"><rect x="0" y="0" width="960" height="540" fill="#27b4ef"></rect><path d="M0 293L22.8 294.2C45.7 295.3 91.3 297.7 137 307.7C182.7 317.7 228.3 335.3 274 335.7C319.7 336 365.3 319 411.2 330.8C457 342.7 503 383.3 548.8 399C594.7 414.7 640.3 405.3 686 386.3C731.7 367.3 777.3 338.7 823 329.8C868.7 321 914.3 332 937.2 337.5L960 343L960 541L937.2 541C914.3 541 868.7 541 823 541C777.3 541 731.7 541 686 541C640.3 541 594.7 541 548.8 541C503 541 457 541 411.2 541C365.3 541 319.7 541 274 541C228.3 541 182.7 541 137 541C91.3 541 45.7 541 22.8 541L0 541Z" fill="#fa7a2d" stroke-linecap="round" stroke-linejoin="miter"></path></svg>