<svg id="visual" viewBox="0 0 960 540" width="960" height="540" xmlns="http://www.w3.org/2000/svg" xmlns:xlink="http://www.w3.org/1999/xlink" version="1.1"><rect x="0" y="0" width="960" height="540" fill="#0faa55"></rect><path d="M0 152L120 152L120 89L240 89L240 125L360 125L360 211L480 211L480 106L600 106L600 184L720 184L720 130L840 130L840 135L960 135L960 84L960 541L960 541L840 541L840 541L720 541L720 541L600 541L600 541L480 541L480 541L360 541L360 541L240 541L240 541L120 541L120 541L0 541Z" fill="#ffffff"></path><path d="M0 308L120 308L120 229L240 229L240 200L360 200L360 269L480 269L480 224L600 224L600 227L720 227L720 219L840 219L840 282L960 282L960 310L960 541L960 541L840 541L840 541L720 541L720 541L600 541L600 541L480 541L480 541L360 541L360 541L240 541L240 541L120 541L120 541L0 541Z" fill="#ffbfb3"></path><path d="M0 394L120 394L120 296L240 296L240 350L360 350L360 396L480 396L480 369L600 369L600 385L720 385L720 304L840 304L840 365L960 365L960 331L960 541L960 541L840 541L840 541L720 541L720 541L600 541L600 541L480 541L480 541L360 541L360 541L240 541L240 541L120 541L120 541L0 541Z" fill="#fb7e6c"></path><path d="M0 456L120 456L120 481L240 481L240 407L360 407L360 475L480 475L480 398L600 398L600 429L720 429L720 474L840 474L840 421L960 421L960 433L960 541L960 541L840 541L840 541L720 541L720 541L600 541L600 541L480 541L480 541L360 541L360 541L240 541L240 541L120 541L120 541L0 541Z" fill="#ec252b"></path></svg>