<svg id="visual" viewBox="0 0 960 540" width="960" height="540" xmlns="http://www.w3.org/2000/svg" xmlns:xlink="http://www.w3.org/1999/xlink" version="1.1"><rect width="960" height="540" fill="#46aaab"></rect><g><g transform="translate(154 280)"><path d="M0 -70L70 0L0 70L-70 0Z" fill="#c2d965"></path></g><g transform="translate(218 483)"><path d="M0 -40L40 0L0 40L-40 0Z" fill="#c2d965"></path></g><g transform="translate(857 445)"><path d="M0 -47L47 0L0 47L-47 0Z" fill="#c2d965"></path></g><g transform="translate(76 450)"><path d="M0 -47L47 0L0 47L-47 0Z" fill="#c2d965"></path></g><g transform="translate(308 117)"><path d="M0 -53L53 0L0 53L-53 0Z" fill="#c2d965"></path></g><g transform="translate(671 400)"><path d="M0 -39L39 0L0 39L-39 0Z" fill="#c2d965"></path></g><g transform="translate(562 88)"><path d="M0 -68L68 0L0 68L-68 0Z" fill="#c2d965"></path></g><g transform="translate(949 160)"><path d="M0 -53L53 0L0 53L-53 0Z" fill="#c2d965"></path></g></g></svg>